<mxfile host="app.diagrams.net" modified="2023-11-07T20:07:20.501Z" agent="Mozilla/5.0 (Windows NT 10.0; Win64; x64) AppleWebKit/537.36 (KHTML, like Gecko) Chrome/118.0.0.0 Safari/537.36" version="22.0.8" etag="YKJ9OH-1iAZ8iOEN1YXB" type="github">
  <diagram name="Trang-1" id="or6leJWEc6rileoFpXHu">
    <mxGraphModel>
      <root>
        <mxCell id="0" />
        <mxCell id="1" parent="0" />
      </root>
    </mxGraphModel>
  </diagram>
</mxfile>
